<svg version="1.1" id="Layer_1" xmlns="http://www.w3.org/2000/svg" x="0" y="0" viewBox="0 0 510 420" xml:space="preserve"><style>.st0{fill:#333}.st1{fill:#eff1f4}.st2{fill:#fff}</style><path class="st0" d="M288.6 336.9H226c-.6 0-1-.4-1-1s.4-1 1-1h62.6c4.6 0 8.4-3.8 8.4-8.4v-48.9c0-.6.4-1 1-1s1 .4 1 1v48.9c0 5.7-4.7 10.4-10.4 10.4zm-16.7-192c-.6 0-1-.4-1-1V98.1c0-5.2 4.2-9.4 9.5-9.4h30c.6 0 1 .4 1 1s-.4 1-1 1h-30c-4.1 0-7.5 3.3-7.5 7.4v45.8c0 .5-.5 1-1 1zm-94.9-1.2c-.6 0-1-.4-1-1V59.4c0-2.2-.9-4.4-2.5-5.9s-3.7-2.5-5.9-2.5H63.8c-4.6 0-8.4 3.8-8.4 8.4v75.7c0 .6-.4 1-1 1s-1-.4-1-1V59.4C53.4 53.7 58 49 63.8 49h103.8c2.8 0 5.4 1.1 7.4 3.1s3 4.6 3 7.4v83.3c0 .5-.4.9-1 .9z"/><circle class="st1" cx="298.6" cy="280.7" r="5.3"/><path class="st0" d="M298.6 287c-3.5 0-6.3-2.8-6.3-6.3s2.8-6.3 6.3-6.3 6.3 2.8 6.3 6.3-2.9 6.3-6.3 6.3zm0-10.5c-2.4 0-4.3 1.9-4.3 4.3s1.9 4.3 4.3 4.3 4.3-1.9 4.3-4.3-2-4.3-4.3-4.3z"/><circle class="st1" cx="222.4" cy="335.5" r="5.3"/><path class="st0" d="M222.4 341.7c-3.5 0-6.3-2.8-6.3-6.3s2.8-6.3 6.3-6.3 6.3 2.8 6.3 6.3-2.9 6.3-6.3 6.3zm0-10.5c-2.4 0-4.3 1.9-4.3 4.3s1.9 4.3 4.3 4.3 4.3-1.9 4.3-4.3-2-4.3-4.3-4.3z"/><circle class="st1" cx="271.9" cy="142.4" r="5.3"/><path class="st0" d="M271.9 148.6c-3.5 0-6.3-2.8-6.3-6.3s2.8-6.3 6.3-6.3 6.3 2.8 6.3 6.3-2.9 6.3-6.3 6.3zm0-10.5c-2.4 0-4.3 1.9-4.3 4.3s1.9 4.3 4.3 4.3 4.3-1.9 4.3-4.3-2-4.3-4.3-4.3z"/><circle class="st1" cx="176.9" cy="142.4" r="5.3"/><path class="st0" d="M176.9 148.6c-3.5 0-6.3-2.8-6.3-6.3s2.8-6.3 6.3-6.3 6.3 2.8 6.3 6.3-2.8 6.3-6.3 6.3zm0-10.5c-2.4 0-4.3 1.9-4.3 4.3s1.9 4.3 4.3 4.3 4.3-1.9 4.3-4.3-1.9-4.3-4.3-4.3z"/><circle class="st1" cx="54.9" cy="142.4" r="5.3"/><path class="st0" d="M54.9 148.6c-3.5 0-6.3-2.8-6.3-6.3s2.8-6.3 6.3-6.3 6.3 2.8 6.3 6.3-2.9 6.3-6.3 6.3zm0-10.5c-2.4 0-4.3 1.9-4.3 4.3s1.9 4.3 4.3 4.3 4.3-1.9 4.3-4.3c-.1-2.4-2-4.3-4.3-4.3zm30.5 34.7l16-.1-.7-8.8-17 3.7z"/><path class="st0" d="M85.5 173.8c-.4 0-.8-.3-.9-.7l-1.7-5.2c-.1-.3-.1-.6.1-.8s.4-.4.7-.5l17-3.6c.3-.1.6 0 .8.2.2.2.4.4.4.7l.7 8.7c0 .3-.1.6-.3.8-.2.2-.5.3-.7.3l-16.1.1zm-.5-5.5l1.2 3.5 14.1-.1-.6-6.5-14.7 3.1z"/><path class="st0" d="M11.6 246.4c8.1 4.2 20.7 8.4 33.6 8.4 13.9 0 21.3-5.8 21.3-14.5 0-8.4-6.4-13.1-22.5-18.9-22.3-7.8-36.8-20.1-36.8-39.6 0-22.9 19.1-40.4 50.7-40.4 15.1 0 26.2 3.2 34.2 6.8l-6.8 24.4c-8.7-4.2-18.3-6.4-28-6.4-13.1 0-19.5 6-19.5 12.9 0 8.6 7.5 12.3 24.9 18.9 23.7 8.7 34.8 21.1 34.8 40 0 22.5-17.3 41.6-54.1 41.6-15.3 0-30.4-4-38-8.2l6.2-25z"/><path class="st0" d="M43.4 280.7c-16.1 0-31.2-4.3-38.5-8.3-.4-.2-.6-.7-.5-1.1l6.2-25.1c.1-.3.3-.5.6-.7.3-.1.6-.1.9 0 10.1 5.2 22.5 8.2 33.1 8.2 12.9 0 20.3-4.9 20.3-13.5 0-7.6-5.5-12.1-21.8-17.9-24.9-8.6-37.5-22.3-37.5-40.5 0-11.6 4.9-22.1 13.9-29.5 9.3-7.7 22.4-11.8 37.8-11.8 12.9 0 24.5 2.3 34.6 6.8.4.2.7.7.6 1.2L86.3 173c-.1.3-.3.5-.6.6-.3.1-.6.1-.8 0-8.5-4.1-18.1-6.3-27.6-6.3-11.2 0-18.5 4.7-18.5 11.9 0 7.9 7.4 11.6 24.2 18 24.5 9.1 35.4 21.7 35.4 40.9 0 11.9-4.8 22.5-13.6 30-9.6 8.2-23.9 12.6-41.4 12.6zM6.6 271c7.3 3.8 21.6 7.7 36.8 7.7 39.1 0 53.1-20.9 53.1-40.5 0-18.3-10.5-30.3-34.1-39.1-17.7-6.7-25.5-10.6-25.5-19.8 0-6.4 5.4-13.9 20.5-13.9 9.4 0 18.8 2 27.4 5.9l6.2-22.5c-9.6-4.2-20.7-6.3-33-6.3-29.7 0-49.7 15.8-49.7 39.3 0 17.5 11.8 30.2 36.1 38.6 17.1 6.1 23.1 11.3 23.1 19.8 0 9.7-8.3 15.5-22.3 15.5-10.6 0-22.8-2.9-32.9-7.9L6.6 271zm191.1-50h-49.3v31.8h55.1v24.8H118v-134h82.7v24.9h-52.3v27.8h49.3V221z"/><path class="st0" d="M203.4 278.7h-85.5c-.6 0-1-.4-1-1V143.6c0-.6.4-1 1-1h82.7c.6 0 1 .4 1 1v24.9c0 .6-.4 1-1 1h-51.3v25.8h48.3c.6 0 1 .4 1 1V221c0 .6-.4 1-1 1h-48.3v29.8h54.1c.6 0 1 .4 1 1v24.9c0 .5-.4 1-1 1zm-84.5-2h83.5v-22.9h-54.1c-.6 0-1-.4-1-1V221c0-.6.4-1 1-1h48.3v-22.7h-48.3c-.6 0-1-.4-1-1v-27.8c0-.6.4-1 1-1h51.3v-22.9h-80.7v132.1zm227.9-67.4c0 43.9-26.6 70.6-65.8 70.6-39.8 0-63-30-63-68.2 0-40.2 25.6-70.2 65.2-70.2 41.1 0 63.6 30.8 63.6 67.8zm-96.8 1.8c0 26.2 12.3 44.7 32.6 44.7 20.5 0 32.2-19.5 32.2-45.5 0-24.1-11.5-44.7-32.4-44.7-20.5-.1-32.4 19.4-32.4 45.5z"/><path class="st2" d="M27.8 246.3c8.2 4.2 20.7 8.4 33.6 8.4 13.9 0 21.3-5.8 21.3-14.5 0-8.4-6.4-13.1-22.5-18.9-22.2-7.8-36.8-20.1-36.8-39.6 0-22.9 19.1-40.4 50.7-40.4 15.1 0 26.2 3.2 34.2 6.8l-6.8 24.4c-8.7-4.2-18.3-6.4-28-6.4-13.1 0-19.5 6-19.5 12.9 0 8.6 7.5 12.3 24.9 18.9 23.7 8.8 34.8 21.1 34.8 40 0 22.5-17.3 41.6-54.1 41.6-15.3 0-30.4-4-38-8.1l6.2-25.1z"/><path class="st0" d="M59.6 280.6c-16 0-31.2-4.3-38.5-8.3-.4-.2-.6-.7-.5-1.1l6.2-25.1c.1-.3.3-.5.6-.7.3-.1.6-.1.9 0 10.1 5.2 22.5 8.2 33.1 8.2 12.9 0 20.3-4.9 20.3-13.5 0-7.6-5.5-12.1-21.8-17.9-24.8-8.7-37.4-22.3-37.4-40.5 0-11.6 4.9-22.1 13.9-29.5 9.3-7.7 22.4-11.8 37.8-11.8 12.9 0 24.5 2.3 34.6 6.8.4.2.7.7.6 1.2l-6.8 24.5c-.1.3-.3.5-.6.6-.3.1-.6.1-.8 0-8.5-4.1-18-6.3-27.6-6.3-11.2 0-18.5 4.7-18.5 11.9 0 7.9 7.4 11.6 24.2 18 24.5 9.1 35.4 21.7 35.4 40.9 0 11.9-4.8 22.5-13.6 30-9.7 8.2-24 12.6-41.5 12.6zm-36.8-9.7c7.3 3.8 21.6 7.7 36.8 7.7 39.1 0 53.1-20.9 53.1-40.5 0-18.3-10.5-30.3-34.1-39.1-17.7-6.7-25.5-10.6-25.5-19.8 0-6.4 5.4-13.9 20.5-13.9 9.4-.1 18.8 2 27.4 5.9l6.2-22.5c-9.6-4.2-20.7-6.3-33-6.3-29.7 0-49.7 15.8-49.7 39.4 0 17.5 11.8 30.1 36.1 38.6 17.1 6.1 23.1 11.3 23.1 19.8 0 9.7-8.3 15.5-22.3 15.5-10.6 0-22.8-2.9-32.9-7.9l-5.7 23.1z"/><path class="st2" d="M213.9 220.9h-49.3v31.8h55.1v24.8h-85.5v-134h82.7v24.9h-52.3v27.8h49.3v24.7z"/><path class="st0" d="M219.7 278.5h-85.5c-.6 0-1-.4-1-1v-134c0-.6.4-1 1-1h82.7c.6 0 1 .4 1 1v24.9c0 .6-.4 1-1 1h-51.3v25.8h48.3c.6 0 1 .4 1 1v24.7c0 .6-.4 1-1 1h-48.3v29.8h54.1c.6 0 1 .4 1 1v24.8c0 .6-.5 1-1 1zm-84.5-2h83.5v-22.8h-54.1c-.6 0-1-.4-1-1v-31.8c0-.6.4-1 1-1h48.3v-22.7h-48.3c-.6 0-1-.4-1-1v-27.8c0-.6.4-1 1-1h51.3v-22.9h-80.7v132z"/><path class="st2" d="M363 209.2c0 43.9-26.6 70.6-65.8 70.6-39.8 0-63-30-63-68.2 0-40.2 25.6-70.2 65.2-70.2 41.1 0 63.6 30.8 63.6 67.8zm-96.8 1.8c0 26.2 12.3 44.7 32.6 44.7 20.5 0 32.2-19.5 32.2-45.5 0-24.1-11.5-44.7-32.4-44.7-20.5-.1-32.4 19.4-32.4 45.5z"/><path class="st0" d="M297.2 280.7c-19.3 0-35.6-7-47.2-20.1-10.9-12.4-16.8-29.8-16.8-49.1 0-41.9 27.2-71.2 66.2-71.2 19.7 0 36.3 7 48 20.4 10.7 12.3 16.6 29.5 16.6 48.4 0 43.5-26.2 71.6-66.8 71.6zm2.2-138.3c-37.8 0-64.2 28.4-64.2 69.2 0 40.2 24.9 67.2 62 67.2 39.4 0 64.8-27.3 64.8-69.6 0-33.3-19.4-66.8-62.6-66.8zm-.6 114.3c-20.4 0-33.6-18-33.6-45.7 0-16.3 4.5-29.9 12.8-38.1 5.5-5.5 12.6-8.4 20.5-8.4h.1c19.7 0 33.4 18.8 33.4 45.7 0 28.3-13 46.5-33.2 46.5zm-.3-90.2c-7.5 0-13.9 2.6-19.1 7.8-7.9 7.9-12.2 20.9-12.2 36.7 0 26.6 12.4 43.7 31.6 43.7 19 0 31.2-17.5 31.2-44.5 0-21.1-9.8-43.7-31.5-43.7.1 0 0 0 0 0z"/><path class="st1" d="M401.8 156.1l-4.7-11.6-54.9 22.9 23.1 61.2 48-20.4z"/><path class="st0" d="M365.3 229.6c-.1 0-.3 0-.4-.1-.3-.1-.4-.3-.5-.6l-23.1-61.2c-.2-.5.1-1.1.5-1.3l54.9-22.9c.2-.1.5-.1.8 0s.4.3.5.5l4.8 11.7c0 .1 0 .1.1.2l11.5 52.1c.1.5-.1.9-.6 1.1l-48 20.4c-.3.1-.4.1-.5.1zm-21.8-61.7l22.4 59.3 46.3-19.6-11.3-51.2-4.3-10.6-53.1 22.1zm157.2 249.8h-33.9c-3.5 0-6.3-2.8-6.3-6.3 0-.6.4-1 1-1H506c.6 0 1 .4 1 1 0 3.5-2.8 6.3-6.3 6.3zm-38-5.3c.5 1.9 2.2 3.3 4.2 3.3h33.9c2 0 3.7-1.4 4.2-3.3h-42.3z"/><path class="st2" d="M506 411.4l-3.5-13c-.6-2.1-2.5-3.6-4.6-3.6l-11-.1c-1.8.3-3.7.6-5.5 1.1-9.5 1.9-15.6 7.7-19.9 15.6H506z"/><path class="st0" d="M461.5 412.4c-.4 0-.7-.2-.9-.5-.2-.3-.2-.7 0-1 5-9.1 11.7-14.4 20.6-16.1 1.8-.5 3.7-.9 5.5-1.1h.1l11 .1c2.6 0 4.9 1.8 5.6 4.3l3.5 13c.1.3 0 .6-.2.9-.2.2-.5.4-.8.4h-44.4zm25.4-16.7c-1.8.2-3.5.6-5.3 1.1-7.9 1.5-13.8 5.9-18.4 13.6h41.5l-3.1-11.7c-.4-1.7-2-2.8-3.7-2.8l-11-.2z"/><path class="st0" d="M484.2 401.8c-.3 0-.6-.1-.8-.4-.1-.2-2.8-3.4-8.3-2.5-.5.1-1.1-.3-1.2-.8-.1-.5.3-1.1.8-1.2 6.8-1.1 10.1 3.1 10.2 3.3.3.4.3 1.1-.2 1.4-.1.2-.3.2-.5.2zm-5.2 2.1c-.3 0-.6-.1-.8-.4-.1-.1-2.1-2.3-7.6-1.4-.5.1-1.1-.3-1.2-.8-.1-.5.3-1.1.8-1.2 6.7-1.1 9.4 2 9.5 2.1.4.4.3 1.1-.1 1.4-.1.2-.4.3-.6.3zm-66.3 13.9h-33.9c-3.5 0-6.3-2.8-6.3-6.3 0-.6.4-1 1-1H418c.6 0 1 .4 1 1 0 3.5-2.8 6.3-6.3 6.3zm-38.1-5.3c.5 1.9 2.2 3.3 4.2 3.3h33.9c2 0 3.7-1.4 4.2-3.3h-42.3z"/><path class="st2" d="M418 411.5l-3.5-13c-.6-2.1-2.5-3.6-4.6-3.6h-13.5c-1.1 0-2.1.3-3 1-9.5 1.9-15.6 7.7-19.9 15.6H418z"/><path class="st0" d="M373.5 412.5c-.4 0-.7-.2-.9-.5-.2-.3-.2-.7 0-1 5-9 11.6-14.3 20.4-16 1-.7 2.2-1.1 3.4-1.1h13.5c2.6 0 4.9 1.8 5.6 4.3l3.5 13c.1.3 0 .6-.2.9-.2.2-.5.4-.8.4h-44.5zm22.8-16.6c-.8 0-1.7.3-2.3.8-.1.1-.3.2-.4.2-7.9 1.5-13.8 5.9-18.4 13.6h41.5l-3.1-11.7c-.4-1.7-2-2.8-3.7-2.8l-13.6-.1c.1 0 .1 0 0 0z"/><path class="st0" d="M394.7 402.8c-.3 0-.6-.1-.8-.4-.1-.1-2.8-3.4-8.3-2.5-.5.1-1.1-.3-1.2-.8-.1-.5.3-1.1.8-1.2 6.8-1.1 10.1 3.1 10.2 3.3.3.4.3 1.1-.2 1.4-.1.1-.3.2-.5.2zm-5.2 2c-.3 0-.6-.1-.8-.4-.1-.1-2.1-2.3-7.6-1.4-.5.1-1.1-.3-1.2-.8-.1-.5.3-1.1.8-1.2 6.7-1.1 9.4 1.9 9.5 2.1.4.4.3 1.1-.1 1.4-.2.3-.4.3-.6.3zm27.4-170.2c2.7 20.6 29.2 91.6 36.9 110.8 3.8 9.6 8.2 19 13.2 28.1 4.1 7.5 9.5 14.4 13.8 21.8.8 1.4 20.7.7 20.6-.2-1.2-8.9-2.3-17.3-2.6-18.7-2.4-12.4-5.8-24.5-10.3-36.3-4.3-11.4-9.9-22-12.5-34-3.7-17.7-2.4-46.2-3.7-66.6"/><path class="st0" d="M488.5 397.1c-4.2 0-7.9-.3-8.5-1.3-1.9-3.3-4.2-6.6-6.3-9.8-2.6-3.9-5.3-7.9-7.5-12-5-9.1-9.4-18.6-13.2-28.2-8.6-21.6-34.3-90.8-37-111.1-.1-.5.3-1 .9-1.1.6-.1 1 .3 1.1.9 2.6 20.1 28.3 89.1 36.8 110.6 3.8 9.6 8.2 19 13.1 28 2.2 4 4.9 8 7.4 11.8 2.1 3.2 4.3 6.4 6.3 9.7 1.7.6 15.3.7 18.7-.2-.4-3.3-.9-6.5-1.2-9.2-.6-4.4-1-7.8-1.2-8.7-2.4-12.3-5.8-24.4-10.3-36.1-1.3-3.4-2.7-6.8-4.1-10.2-3.2-7.6-6.6-15.6-8.3-24.1-2.4-11.5-2.7-27.5-3-42.9-.2-8.5-.3-16.6-.8-23.8 0-.6.4-1 .9-1.1.5 0 1 .4 1.1.9.5 7.3.6 15.4.8 23.9.3 15.3.6 31.2 2.9 42.5 1.7 8.3 5 16.1 8.2 23.7 1.4 3.3 2.9 6.8 4.2 10.2 4.5 11.8 8 24.1 10.4 36.4.2.9.6 4.2 1.2 8.8.4 3 .9 6.4 1.3 9.9 0 .2 0 1-1 1.3-.9.6-7.4 1.2-12.9 1.2z"/><path d="M447.6 299.9c.4-3.9.6-7.8.8-11.9.5-10.5.4-21-.4-31.4" fill="none"/><path class="st0" d="M391.7 235.7s-2.5 66.5-3.1 87.3 2.8 72.7 2.8 72.7l22.2.3s8.3-37.4 7.9-70.7c-.3-20.1 18.9-67 18.9-67l-28.6-28.9-20.1 6.3z"/><path class="st0" d="M413.5 397l-22.2-.3c-.5 0-.9-.4-1-.9 0-.5-3.5-52.2-2.8-72.8.7-20.6 3.1-86.7 3.1-87.3 0-.4.3-.8.7-.9l20-6.2c.4-.1.7 0 1 .2l28.6 28.9c.3.3.4.7.2 1.1-.2.5-19.1 47-18.9 66.6.5 33-7.8 70.5-7.9 70.9.1.4-.4.7-.8.7zm-21.3-2.3l20.4.3c1.2-5.6 8.1-39.6 7.7-69.7-.3-19 16.4-61 18.8-66.8l-27.7-28-18.7 5.9c-.3 7.2-2.5 67.2-3.1 86.6-.7 19.1 2.2 64.7 2.6 71.7z"/><path class="st2" d="M374.1 122.1V13.9s-46.3-13.2-77 12.6v107.4c0-.1 52.8-21 77-11.8z"/><path class="st0" d="M297.1 134.8c-.2 0-.4-.1-.6-.2-.3-.2-.4-.5-.4-.8V26.4c0-.3.1-.6.4-.8 30.7-25.8 77.4-12.9 77.9-12.8.4.1.7.5.7 1V122c0 .3-.2.6-.4.8s-.6.2-.9.1c-23.5-8.9-75.8 11.5-76.3 11.8-.2.1-.3.1-.4.1zm1-107.9v105.4c3.8-1.4 15.1-5.5 28.2-8.8 20.8-5.2 36.5-6.2 46.8-2.9v-106c-6-1.5-47.2-10.7-75 12.3z"/><path class="st1" d="M346.7 28.1c-10.4 0-18.9 8.5-18.9 18.9 0 10.4 8.5 18.9 18.9 18.9 10.4 0 18.9-8.4 18.9-18.9 0-10.4-8.4-18.9-18.9-18.9zm0 27.7c-4.9 0-8.8-4-8.8-8.8s4-8.8 8.8-8.8c4.9 0 8.8 4 8.8 8.8 0 4.9-3.9 8.8-8.8 8.8z"/><path class="st0" d="M346.7 66.9c-11 0-19.9-8.9-19.9-19.9 0-11 8.9-19.9 19.9-19.9 11 0 19.9 9 19.9 19.9 0 11-8.9 19.9-19.9 19.9zm0-38.8v1c-9.9 0-17.9 8-17.9 17.9s8 17.9 17.9 17.9c9.9 0 17.9-8 17.9-17.9 0-9.9-8-17.9-17.9-17.9v-1zm0 28.7c-5.4 0-9.8-4.4-9.8-9.8s4.4-9.8 9.8-9.8c2.6 0 5.1 1 6.9 2.9 1.9 1.9 2.9 4.3 2.9 7 0 5.3-4.4 9.7-9.8 9.7zm0-17.7c-4.3 0-7.8 3.5-7.8 7.8s3.5 7.8 7.8 7.8 7.8-3.5 7.8-7.8c0-2.1-.8-4.1-2.3-5.6-1.4-1.3-3.4-2.2-5.5-2.2zM321.1 76h-8.6l-.1 32.5 8.8-2.7zm11.7 6.6h-8.1v22.1l8.4-1.4z"/><path class="st0" d="M307.7 112.6c-.2 0-.3 0-.5-.1-.3-.2-.5-.5-.5-.9l.2-73.6c0-.6.4-1 1-1s1 .5 1 1l-.2 71.9c3.8-2 14.2-6.6 30-7.6.6 0 1 .4 1.1.9 0 .6-.4 1-.9 1.1-19.1 1.1-30.5 8.1-30.6 8.1-.2.1-.4.2-.6.2z"/><path class="st0" d="M304.9 38.9l3-5.2 3 5.2zm33.1 67.5l5-3.2-5.2-2.8zm14-77.6l-2.7 9.7c1.9.6 3.5 1.7 4.6 3.3l8.1-6c-2.5-3.4-6-5.9-10-7zm42.2 156.1c-.8 3.1 0 63.6 0 63.6l37.5-1.5-6.1-56.7-31.4-5.4z"/><path class="st1" d="M429.9 79.3s-15.6 22-8.1 26.9 11.6 0 11.6 0l3.2-6.4-6.7-20.5z"/><path class="st0" d="M27.8 246l-16.1.1 5.2 7 8 .5z"/><path class="st0" d="M24.9 254.5l-8-.5c-.3 0-.6-.2-.7-.4l-5.2-7c-.2-.3-.3-.7-.1-1 .2-.3.5-.6.9-.6l16.1-.1c.3 0 .6.2.8.4.2.3.2.6.1.9l-2.9 7.5c-.2.6-.6.8-1 .8zm-7.5-2.4l6.8.4 2.1-5.5H13.6l3.8 5.1z"/><path class="st1" d="M366.7 145.6c-2.2-2.7-4.2-5.6-6-8.5 1-13.7-1.4-17.5-3-22.4 0 0-5.8-33.4-6.8 0-8.5 2.2-14.2 2.2-13.3 9.7 1 7.9 5.3 25.6 10 36.8"/><path class="st0" d="M347.5 162.2c-.4 0-.8-.2-.9-.6-4.8-11.4-9.1-29.3-10.1-37.1-.9-7.3 4.2-8.5 10.6-10 .9-.2 1.8-.4 2.7-.7.5-13.8 1.7-15 3.1-15.1.8-.1 2.9-.2 5.6 15.6.2.6.4 1.3.7 1.9 1.5 4.1 3.2 8.7 2.4 20.4 1.8 2.8 3.7 5.5 5.8 8.1.3.4.3 1.1-.2 1.4-.4.3-1.1.3-1.4-.2-2.2-2.7-4.2-5.6-6.1-8.6-.1-.2-.2-.4-.1-.6.8-11.6-.7-15.8-2.2-19.9-.2-.7-.5-1.3-.7-2v-.1c-1-5.5-2.5-11.8-3.5-13.6-.4 1.1-1 4.2-1.3 13.5 0 .4-.3.8-.7.9-1.2.3-2.4.6-3.5.9-6.9 1.6-9.7 2.5-9 7.8 1 7.7 5.2 25.3 9.9 36.5.2.5 0 1.1-.5 1.3-.3.2-.4.2-.6.2z"/><path class="st0" d="M342.8 124.4c-.5 0-.9-.3-1-.8-.1-.5.2-1.1.8-1.2.1 0 10-2.1 12-2.7.5-.2 1.1.1 1.3.7.2.5-.1 1.1-.7 1.3-2.1.6-11.8 2.7-12.2 2.8 0-.1-.1-.1-.2-.1z"/><path class="st2" d="M389.3 186.8c-6.2 19.9-9 39.5-9.7 64.3 6.5 5.7 18 2.9 18 2.9-3.6-19.8-2.2-41.7 1.7-64.9l-10-2.3z"/><path class="st0" d="M391.2 255.7c-3.9 0-8.7-.8-12.2-3.9-.2-.2-.3-.5-.3-.8.6-25.4 3.5-44.7 9.7-64.6.2-.5.7-.8 1.2-.7l10 2.4c.5.1.8.6.8 1.1-4.3 25.8-4.9 46.9-1.7 64.5.1.5-.2 1-.7 1.1-.4.3-3.2.9-6.8.9zm-10.5-5c5.1 4.1 13.1 3.1 15.8 2.6-3-17.4-2.4-38.2 1.7-63.3l-8.2-2c-5.9 19.3-8.7 38.1-9.3 62.7z"/><path class="st2" d="M347.6 161.2l19-15.7s12.4 11.4 24.6 17.6c6.7-12 28.6-33.6 53.4-31.2 21.5 2.1 30.5 23.1 32.7 57.2 1 14.6 2 31.7 2.7 59.6.5 22.6-62.1 14.3-62.4 8.4-1.3-23.3-.4-55.7 2.1-59.8 0 .1-45.8 14.3-72.1-36.1z"/><path class="st0" d="M449.4 264.7c-13.9 0-32.6-3-32.8-7.4-1-19.1-.8-49.5 1.5-58.4-3.9.9-13.3 2.5-24.8.3-13.7-2.6-32.8-11.1-46.6-37.5-.2-.4-.1-.9.3-1.2l19-15.7c.4-.3.9-.3 1.3 0 .1.1 11.8 10.9 23.5 17 6.8-11.3 28.5-33.3 53.9-30.9 20.4 2 31.1 20.5 33.6 58.1 1 14 2 31.4 2.7 59.7.2 9.5-9.8 15.2-28.3 15.9-1.1.1-2.2.1-3.3.1zm-29.7-68.2c.3 0 .6.1.8.4.3.3.3.8.1 1.1-2.2 3.6-3.3 35.2-2 59.2.7 2.3 23.4 7.7 42.9 4.6 8.1-1.3 17.7-4.6 17.5-13-.6-28.2-1.7-45.5-2.7-59.6-2.4-36.5-12.5-54.4-31.8-56.3-25-2.4-46.5 20-52.4 30.7-.3.5-.8.6-1.3.4-10.6-5.4-21.5-14.8-24.2-17.2l-17.7 14.6c13.4 25.1 31.7 33.3 44.8 35.7 14.3 2.7 25.6-.7 25.7-.7.1.1.2.1.3.1z"/><path class="st0" d="M420.5 159.8s1-14.8 18-20.6-11.7-5.6-22 1.1c-6.1 4-11 15.3-14 24.7 9.4.6 18-5.2 18-5.2z"/><path class="st1" d="M426.2 110.1l-2.5 24.6s-6.5 5.3-1.6 5.9 32.2-5.7 32.2-5.7l-6.5-29s11.3-21.2 1.1-31.2c-8.2-8.1-17.5 1.3-22 8.4"/><path class="st0" d="M423 141.7h-.9c-1.8-.2-2.4-1.1-2.6-1.8-.6-2 2.1-4.6 3.4-5.7l2.4-24.2c.1-.5.6-1 1.1-.9.5.1 1 .5.9 1.1l-2.5 24.6c0 .3-.2.5-.4.7-1.7 1.4-3.2 3.3-3 3.8 0 0 .2.2 1 .3 3.7.5 22.7-3.6 30.9-5.4l-6.3-28c-.1-.2 0-.5.1-.7.1-.2 10.8-20.6 1.3-30.1-2.2-2.1-4.5-3.1-7-2.8-5.1.6-10.3 6.1-13.4 11-.3.5-.9.6-1.4.3-.5-.3-.6-.9-.3-1.4 1.6-2.6 7.6-11.1 14.9-12 3.2-.4 6.1.8 8.7 3.4 4.4 4.4 5.7 11.4 3.5 20.3-1.4 5.7-3.7 10.5-4.3 11.7l6.4 28.6c.1.5-.2 1.1-.8 1.2-1.1.5-25 6-31.7 6zM97 343.3c-.6 0-1-.4-1-1v-35.1c0-.6.4-1 1-1s1 .4 1 1v35.1c0 .6-.4 1-1 1zm-5.9-24.6H60.7c-.6 0-1-.4-1-1s.4-1 1-1h30.5c.6 0 1 .4 1 1s-.5 1-1.1 1zm0 6.9H70.3c-.6 0-1-.4-1-1s.4-1 1-1h20.8c.6 0 1 .4 1 1s-.4 1-1 1zm0 6.8H64.3c-.6 0-1-.4-1-1s.4-1 1-1h26.8c.6 0 1 .4 1 1s-.4 1-1 1zm263.8-159.5c-.3 0-.5-.1-.7-.3-.4-.4-.3-1 .1-1.4l20.4-18.5c.4-.4 1-.3 1.4.1s.3 1-.1 1.4l-20.4 18.5c-.2.1-.4.2-.7.2zm-31.6 244.9h-87.7c-.6 0-1-.4-1-1s.4-1 1-1h87.7c.6 0 1 .4 1 1s-.4 1-1 1zm-98 0H2.4c-.6 0-1-.4-1-1s.4-1 1-1h222.9c.6 0 1 .4 1 1s-.5 1-1 1zm284.1 0H347.1c-.6 0-1-.4-1-1s.4-1 1-1h162.3c.6 0 1 .4 1 1s-.4 1-1 1zm-89.1-219.3c-.5 0-.9-.3-1-.8-.1-.5.3-1.1.8-1.1.2 0 15.9-2.7 26-15.2.3-.4 1-.5 1.4-.1.4.3.5 1 .1 1.4-10.6 13.1-26.5 15.8-27.2 15.9 0-.2 0-.1-.1-.1z"/><path class="st0" d="M436.4 111.6c-4 1.5-7.7 3.9-10.8 6.9l1.1-7.8 9.7.9z"/><path class="st1" d="M356.9 204c14.8-9.6 8-1.1 2.9 4.4-2.2 2.4-5.9 2.8-8.5.8-4.5-3.4-10.1-9.1-8-15.3 3.4-10 10.2-13.6 9.8-10.4s-4.6 11.9-4.6 11.9 14.6-16.7 10.4-3.4c9.8-4-1.8 11.8-1.8 11.8"/><path class="st0" d="M355.1 211.5c-1.5 0-3.1-.5-4.4-1.5-5-3.8-10.6-9.7-8.4-16.4 2.8-8.3 8-12.7 10.4-12.2.8.2 1.5.9 1.3 2.2-.2 1.6-1.2 4.2-2.2 6.7 4.8-4.6 6.9-4.7 7.7-4.2 1.2.7 1.2 2.5.7 4.4 1.1-.2 2.3-.2 3 .7 1.4 1.8-.7 6-2.9 9.5 4.6-2.6 5.5-2.3 6.2-1.5.8.9.9 2.4-6 10-1.4 1.5-3.4 2.3-5.4 2.3zm-3.1-28.1c-1.2.3-5.3 3.5-7.8 10.8-1.9 5.6 3.1 10.8 7.7 14.2 2.2 1.7 5.3 1.4 7.2-.7 3.7-4.1 5-6 5.5-7-.9.3-2.9 1.3-7.1 4-.5.3-1.1.2-1.4-.3-.2-.4-.2-.9.1-1.2 0 0 0-.1.1-.1 3.8-5.2 6-10.1 5.4-10.8 0 0-.5-.3-2.5.5-.4.1-.8.1-1.1-.2-.3-.3-.4-.7-.3-1 .9-2.7.7-3.6.7-3.9-1.2 0-5.5 3.8-9.3 8.2-.3.4-.9.5-1.3.2s-.6-.8-.3-1.3c1.1-2.2 4.1-8.8 4.4-11.4z"/><path class="st0" d="M352.2 201.2c-.2 0-.4-.1-.6-.2-.4-.3-.5-1-.2-1.4l6.9-8.6c.3-.4 1-.5 1.4-.2.4.3.5 1 .2 1.4l-6.9 8.6c-.2.2-.5.4-.8.4z"/><path class="st2" d="M440.5 78.1c-.4.6-14 13.5-14.5 22s1.8 9.7 1.8 9.7-10-.4-7.7-11.1 15.3-24.1 15.3-24.1l5.1 3.5z"/><path class="st0" d="M435.2 112.3c-7.1 0-11.9-1.8-14.2-5.4-2.7-4.2-1.9-10.6 2.3-19.1.2-.5.8-.7 1.3-.5.5.2.7.8.5 1.3-3.9 7.8-4.7 13.6-2.4 17.2 2 3.1 6.4 4.6 13.2 4.5.5 0 1 .4 1 1s-.4 1-1 1h-.7z"/><path class="st2" d="M429.4 84.8c-3.8-4.7-13.5-4.1-3.4 4.5"/><path class="st0" d="M426 90.3c-.2 0-.5-.1-.6-.2-3.6-3-5.2-5.5-4.7-7.3.2-.9 1-1.6 2-1.8 2-.5 5.5.6 7.6 3.2.3.4.3 1.1-.1 1.4-.4.3-1.1.3-1.4-.1-1.6-1.9-4.3-2.7-5.6-2.5-.3.1-.5.2-.5.3-.1.6.6 2.3 4.1 5.3.4.4.5 1 .1 1.4-.4.2-.7.3-.9.3zm8.5-15.6s4.7 13.5 17.9 19.2c2-11.1-1.8-20.5-7.7-21.9-3.7-.7-7.4.3-10.2 2.7z"/><path class="st0" d="M429.9 79.3s-.5-15.5 8-16.1 13.6 1.3 16.2 9.1 5.4 9.8 6.4 16.1c1.3 8.9-10.5 22.2-10.5 22.2-2.2-.7-3.7-2.8-3.6-5.2-.4-13.2.6-15.8-1.9-19.5-5.2-7.8.6-12.3-4.6-12.3s-10 5.7-10 5.7z"/><ellipse transform="rotate(-56.468 443.97 94.157)" class="st1" cx="444" cy="94.2" rx="4.7" ry="3.5"/><path class="st0" d="M400.6 165.9c-3.4 0-6.7-.6-9.7-1.8-.5-.2-.8-.8-.6-1.3.2-.5.8-.8 1.3-.6 18.9 7.5 41.2-12.9 41.4-13.1.4-.4 1-.4 1.4.1.4.4.4 1-.1 1.4-.2.2-5.9 5.4-14.1 9.7-6.8 3.7-13.5 5.6-19.6 5.6z"/><path class="st1" d="M110 307.2h99.8V363H110z"/><path class="st0" d="M209.8 363.9H110c-.6 0-1-.4-1-1v-55.8c0-.6.4-1 1-1h99.8c.6 0 1 .4 1 1v55.8c0 .6-.4 1-1 1zm-98.8-2h97.8v-53.8H111v53.8z"/><path class="st2" d="M110.3 339.7c3.5-15.6 22.6 11.2 31.6 14.7s10.6-2 18.9-18.7 11.4 15.8 14.5 17.1 5.7-1.3 9-4.4 6.6 10.3 13.6 7 12.1-3.1 12.1-3.1l-.2 10.5H110l.3-23.1z"/><path class="st0" d="M210.8 363.9H109l.3-24.4c.7-3 2-4.8 3.9-5.4 4.6-1.4 11.1 4.5 17.9 10.8 4.3 3.9 8.3 7.6 11.1 8.7 7 2.7 8.7 0 15.3-13.5.7-1.4 1.5-3 2.3-4.7 1.9-3.8 3.7-5.5 5.7-5.3 3.4.3 5.3 6.3 7.7 14.7.8 2.9 1.9 6.8 2.5 7.4 2.2.9 4.2-.8 7.5-3.9l.3-.3c.6-.5 1.2-.8 1.9-.7 1.5.1 2.8 1.6 4.2 3.4 2.7 3.3 4.8 5.6 7.8 4.1 7.2-3.4 12.4-3.2 12.6-3.2h1l-.2 12.3zm-99.8-2h97.8l.2-8.4c-1.7.1-5.7.6-10.6 3-4.7 2.2-7.9-1.8-10.2-4.7-1-1.2-2.1-2.7-2.8-2.7 0 0-.2 0-.4.2l-.3.3c-3.2 3-6.2 5.8-9.7 4.3-1.3-.6-2.1-3.2-3.6-8.6-1.3-4.9-3.6-13-5.9-13.2-.4 0-1.7.3-3.7 4.2-.8 1.7-1.6 3.2-2.3 4.7-6.5 13.1-8.9 18-17.9 14.5-3.2-1.2-7.3-5-11.7-9.1-5.9-5.4-12.5-11.4-16-10.3-1.2.4-2 1.7-2.5 3.8l-.4 22z"/><path class="st0" d="M209.8 363.9H110c-.6 0-1-.4-1-1v-55.8c0-.6.4-1 1-1h99.8c.6 0 1 .4 1 1v55.8c0 .6-.4 1-1 1zm-98.8-2h97.8v-53.8H111v53.8z"/><path class="st2" d="M237.8 67.4h-29.9v-11h29.9c3 0 5.5 2.5 5.5 5.5s-2.4 5.5-5.5 5.5z"/><path class="st0" d="M237.8 68.4h-29.9c-.6 0-1-.4-1-1v-11c0-.6.4-1 1-1h29.9c3.6 0 6.5 2.9 6.5 6.5s-2.9 6.5-6.5 6.5zm-28.9-2h28.9c2.5 0 4.5-2 4.5-4.5s-2-4.5-4.5-4.5h-28.9v9z"/><path class="st2" d="M224.7 88.2h-16.8V77.3h16.8c3 0 5.5 2.4 5.5 5.5s-2.4 5.4-5.5 5.4z"/><path class="st0" d="M224.7 89.2h-16.8c-.6 0-1-.4-1-1V77.3c0-.6.4-1 1-1h16.8c3.6 0 6.5 2.9 6.5 6.5s-2.9 6.4-6.5 6.4zm-15.8-2h15.8c2.5 0 4.5-2 4.5-4.5s-2-4.5-4.5-4.5h-15.8v9z"/><path class="st2" d="M240.9 109H208V98h32.9c3 0 5.5 2.5 5.5 5.5s-2.4 5.5-5.5 5.5z"/><path class="st0" d="M241 110h-33c-.6 0-1-.4-1-1V98c0-.6.4-1 1-1h33c3.6 0 6.5 2.9 6.5 6.5s-3 6.5-6.5 6.5zm-32-2h32c2.5 0 4.5-2 4.5-4.5s-2-4.5-4.5-4.5h-32v9zm7.2-30.7v10.9H199c-3 0-5.5-2.4-5.5-5.5s2.4-5.5 5.5-5.5h17.2z"/><path class="st0" d="M216.2 89.2H199c-3.6 0-6.5-2.9-6.5-6.5s2.9-6.5 6.5-6.5h17.2c.6 0 1 .4 1 1v10.9c0 .7-.5 1.1-1 1.1zM199 78.3c-2.5 0-4.5 2-4.5 4.5s2 4.5 4.5 4.5h16.2v-8.9H199zm17.6 30.7H199c-3 0-5.5-2.5-5.5-5.5S196 98 199 98h17.6v11z"/><path class="st0" d="M216.6 110H199c-3.6 0-6.5-2.9-6.5-6.5s2.9-6.5 6.5-6.5h17.6c.3 0 .5.1.7.3.2.2.3.4.3.7v11c0 .6-.4 1-1 1zM199 99c-2.5 0-4.5 2-4.5 4.5s2 4.5 4.5 4.5h16.6v-9H199zm8.9-42.5v11H199c-3 0-5.5-2.5-5.5-5.5s2.5-5.5 5.5-5.5h8.9z"/><path class="st0" d="M207.9 68.5H199c-3.6 0-6.5-2.9-6.5-6.5s2.9-6.5 6.5-6.5h8.9c.6 0 1 .4 1 1v11c0 .5-.5 1-1 1zm-8.9-11c-2.5 0-4.5 2-4.5 4.5s2 4.5 4.5 4.5h7.9v-9H199zm-83.4-21.3c-7 0-12.7-5.7-12.7-12.7s5.7-12.7 12.7-12.7 12.7 5.7 12.7 12.7-5.7 12.7-12.7 12.7zm0-23.5c-5.9 0-10.7 4.8-10.7 10.7 0 5.9 4.8 10.7 10.7 10.7 5.9 0 10.7-4.8 10.7-10.7 0-5.9-4.8-10.7-10.7-10.7zm39.8 23.5c-7 0-12.7-5.7-12.7-12.7s5.7-12.7 12.7-12.7 12.7 5.7 12.7 12.7-5.7 12.7-12.7 12.7zm0-23.5c-5.9 0-10.7 4.8-10.7 10.7 0 5.9 4.8 10.7 10.7 10.7 5.9 0 10.7-4.8 10.7-10.7 0-5.9-4.8-10.7-10.7-10.7zM79.6 36.2c-7 0-12.7-5.7-12.7-12.7s5.7-12.7 12.7-12.7 12.7 5.7 12.7 12.7-5.7 12.7-12.7 12.7zm0-23.5c-5.9 0-10.7 4.8-10.7 10.7 0 5.9 4.8 10.7 10.7 10.7 5.9 0 10.7-4.8 10.7-10.7 0-5.9-4.8-10.7-10.7-10.7z"/><path class="st0" d="M69.7 35.1c-6.5-5.5-7.3-15.1-1.8-21.6 2.9-3.5 7.2-5.4 11.7-5.4 1.9 0 3.8.4 5.6 1.1l-2.6 6.6c-4.2-1.7-9 .4-10.6 4.6-1.3 3.2-.4 6.9 2.3 9.2l-4.6 5.5zm45.9 3.7c-8.5 0-15.3-6.9-15.3-15.3 0-8.5 6.9-15.3 15.3-15.3v7.1c-4.5 0-8.2 3.7-8.2 8.2s3.7 8.2 8.2 8.2c4.5 0 8.2-3.7 8.2-8.2h7.1c0 8.4-6.9 15.2-15.3 15.3zm39.8 0c-8.5 0-15.3-6.9-15.3-15.3 0-8.5 6.9-15.3 15.3-15.3.9 0 1.7.1 2.6.2l-1.2 7c-.5-.1-.9-.1-1.4-.1-4.5 0-8.2 3.7-8.2 8.2 0 4.5 3.7 8.2 8.2 8.2.3 0 .7 0 1-.1l.9 7.1c-.7 0-1.3 0-1.9.1z"/><path class="st1" d="M27 81.7h121.4c7.5 0 13.6 6.1 13.6 13.7 0 7.5-6.1 13.7-13.6 13.7H27c-7.5 0-13.7-6.1-13.7-13.7.1-7.6 6.2-13.7 13.7-13.7z"/><path class="st0" d="M148.4 110H27c-8.1 0-14.6-6.6-14.6-14.6 0-8.1 6.6-14.7 14.6-14.7h121.4c8.1 0 14.6 6.6 14.6 14.6 0 8.2-6.5 14.7-14.6 14.7zM27 82.7c-7 0-12.6 5.7-12.6 12.6 0 7 5.7 12.7 12.6 12.7h121.4c7 0 12.6-5.7 12.6-12.6 0-7-5.7-12.7-12.6-12.7H27z"/><path class="st0" d="M138.8 99.8c-3.5 0-6.3-2.8-6.3-6.3s2.8-6.3 6.3-6.3 6.3 2.8 6.3 6.3-2.8 6.3-6.3 6.3zm0-10.7c-2.4 0-4.3 1.9-4.3 4.3s1.9 4.3 4.3 4.3 4.3-1.9 4.3-4.3-1.9-4.3-4.3-4.3z"/><path class="st0" d="M147.9 103.6c-.3 0-.5-.1-.7-.3l-5.4-5.4c-.4-.4-.4-1 0-1.4.4-.4 1-.4 1.4 0l5.4 5.4c.4.4.4 1 0 1.4-.2.2-.5.3-.7.3z"/></svg>
